<svg id="Layer_1" data-name="Layer 1" xmlns="http://www.w3.org/2000/svg" viewBox="0 0 65.5 72.66"><defs><style>.cls-1{fill:#7d1416;}</style></defs><path class="cls-1" d="M329.66,407.55a14.11,14.11,0,0,0,1.88-5.3,11.27,11.27,0,0,0-.47-5.39,13.42,13.42,0,0,0-2.78-4.55,7.18,7.18,0,0,0-1-.94l-1-.91-2.22-1.57.23.13a4.52,4.52,0,0,0-.65-.1,4,4,0,0,0-.77,0,4.29,4.29,0,0,0-.79.11l-.39.08-.38.14a6.28,6.28,0,0,0-.76.29l-.72.42-.37.2-.33.27-.67.53a3.51,3.51,0,0,0-.62.6l-.6.65a9.61,9.61,0,0,0-1.09,1.41,24.87,24.87,0,0,0-1.89,3.12c-2.28,4.39-3.53,9.39-4.66,14.34l-.76,3.76c-.26,1.25-.4,2.54-.6,3.81l-.57,3.81-.5,3.88-2.16,15.51-2.36,16.95-2.55-16.94c-.26-1.71-.54-3.43-.78-5.15l-.73-5.15-1.48-10.3v-.21a66,66,0,0,0-3.47-16.87,36.1,36.1,0,0,0-3.71-7.59,17.81,17.81,0,0,0-5.78-5.62,14.78,14.78,0,0,0-7.8-2c-2.76,0-5.7.54-6.81,2.68a6.63,6.63,0,0,0-.41,3.85,19.63,19.63,0,0,0,1.16,4.15,43.81,43.81,0,0,0,4.2,7.87,38.41,38.41,0,0,1-5.24-7.39,20,20,0,0,1-1.73-4.32,8.45,8.45,0,0,1,.14-5,6.87,6.87,0,0,1,3.78-3.62,16.2,16.2,0,0,1,4.79-1,17.76,17.76,0,0,1,9.55,1.73,21.61,21.61,0,0,1,7.35,6.39,36.63,36.63,0,0,1,4.55,8.31,61.54,61.54,0,0,1,2.76,8.91,64.32,64.32,0,0,1,1.48,9.21l0-.2,1.58,10.29.8,5.14c.27,1.71.5,3.43.75,5.15h-4.91l2.32-15.48.61-3.86.7-3.91c.25-1.31.44-2.61.74-3.91l.92-3.89c.27-1.3.67-2.58,1.07-3.86s.74-2.57,1.27-3.82.94-2.52,1.53-3.75l.9-1.84a16.61,16.61,0,0,1,1-1.81,25.37,25.37,0,0,1,2.37-3.44A11.64,11.64,0,0,1,315,390l.79-.74a5.15,5.15,0,0,1,.84-.69l.91-.63.45-.3.51-.25,1-.47a9.85,9.85,0,0,1,1.09-.34l.55-.15.58-.07a6.29,6.29,0,0,1,1.15-.08,5.88,5.88,0,0,1,1.18.1,5.48,5.48,0,0,1,1.25.32l.16.06.08.07c.77.66,1.54,1.3,2.28,2l1,1.11a8.94,8.94,0,0,1,1,1.15l.88,1.24a13.25,13.25,0,0,1,.72,1.34A6.56,6.56,0,0,1,332,395a12.86,12.86,0,0,1,.44,1.46,12.37,12.37,0,0,1-.15,5.93A14.33,14.33,0,0,1,329.66,407.55Z" transform="translate(-267.23 -386.14)"/></svg>