<svg id="Layer_1" data-name="Layer 1" xmlns="http://www.w3.org/2000/svg" viewBox="0 0 188.26 191.02"><defs><style>.cls-1,.cls-3{fill:#fff;}.cls-2{fill:#231f20;}.cls-3{stroke:#231f20;stroke-miterlimit:10;}</style></defs><path class="cls-1" d="M349.05,306.71s19.57-51.22-24.69-67.22c0,0,22.85,17.86-3.21,47.4Z" transform="translate(-203.51 -190.81)"/><path class="cls-2" d="M349.05,306.71A80.83,80.83,0,0,0,352.69,287a57,57,0,0,0-2-19.71,39.39,39.39,0,0,0-3.92-9,35.51,35.51,0,0,0-6-7.73,39.34,39.34,0,0,0-7.81-6,46.41,46.41,0,0,0-4.36-2.3c-1.48-.71-3.05-1.25-4.57-1.88l.94-1.7a25.29,25.29,0,0,1,4.65,5.18,29,29,0,0,1,3.2,6.12,27.1,27.1,0,0,1,1.4,13.61,37.49,37.49,0,0,1-4.55,12.83,63.17,63.17,0,0,1-8,10.87l-.12-1c4.54,3.33,9.08,6.62,13.64,10.06Zm0,0-14-9.51c-4.74-3.17-9.5-6.49-14.27-9.77l-.6-.41.49-.57a61.69,61.69,0,0,0,7.55-10.81,35.93,35.93,0,0,0,4.24-12.26A25.34,25.34,0,0,0,331,250.7a27,27,0,0,0-7.27-10.43l-4.69-4.1,5.63,2.4c1.57.67,3.18,1.23,4.71,2a45.67,45.67,0,0,1,4.52,2.43,41,41,0,0,1,8.1,6.28,38.73,38.73,0,0,1,10.1,17.63,57.55,57.55,0,0,1,1.49,20.19,79.7,79.7,0,0,1-1.64,10A67.51,67.51,0,0,1,349.05,306.71Z" transform="translate(-203.51 -190.81)"/><path class="cls-1" d="M253.76,301.82s-17.57-32,20.22-62.33c0,0-14,27.82,5,46.85Z" transform="translate(-203.51 -190.81)"/><path class="cls-2" d="M253.76,301.82a41.77,41.77,0,0,1-4.52-17.13A46.71,46.71,0,0,1,251.89,267a55,55,0,0,1,3.74-8.19c.8-1.26,1.52-2.59,2.41-3.8l1.28-1.85,1.38-1.78a80.27,80.27,0,0,1,12.66-12.67l3.26-2.64-1.76,3.85A55.56,55.56,0,0,0,271,251.6a45.76,45.76,0,0,0-1,12.23,35.35,35.35,0,0,0,2.71,11.89,32.92,32.92,0,0,0,6.77,10.16l.57.6-.69.41c-4.31,2.55-8.62,5.12-12.91,7.58Zm0,0,12.57-8.12c4.13-2.71,8.24-5.3,12.35-7.91l-.12,1a34.44,34.44,0,0,1-7.37-10.42,31.4,31.4,0,0,1-2.05-6.09,35.14,35.14,0,0,1-.94-6.35,47.68,47.68,0,0,1,.94-12.73,52.42,52.42,0,0,1,4-12.16l1.49,1.21a78.73,78.73,0,0,0-12.49,12.26l-1.36,1.72L259.48,256c-.88,1.17-1.58,2.45-2.37,3.67a61.76,61.76,0,0,0-3.83,7.84,46.38,46.38,0,0,0-3.1,17.14A43.08,43.08,0,0,0,253.76,301.82Z" transform="translate(-203.51 -190.81)"/><path class="cls-1" d="M298.58,346.52c31.29-1,55.59-34.38,55.59-34.38s-26.42-31.71-57.71-30.69-55.59,34.38-55.59,34.38S267.29,347.54,298.58,346.52Z" transform="translate(-203.51 -190.81)"/><path class="cls-2" d="M298.58,346.32a51.42,51.42,0,0,0,8.29-1.09,58.77,58.77,0,0,0,8-2.45,69.61,69.61,0,0,0,14.59-8.1,95.67,95.67,0,0,0,12.55-11A104.94,104.94,0,0,0,352.63,311l.08,2.34a105,105,0,0,0-12.23-11,108.41,108.41,0,0,0-13.67-9c-2.37-1.3-4.79-2.49-7.25-3.55a77.35,77.35,0,0,0-7.51-2.69,56.06,56.06,0,0,0-7.7-1.69,50.64,50.64,0,0,0-7.77-.39,48.18,48.18,0,0,0-7.73.89,56.69,56.69,0,0,0-7.57,2.18,76.09,76.09,0,0,0-7.33,3.17c-2.38,1.22-4.73,2.56-7,4a108.36,108.36,0,0,0-24.55,21.63l-.07-2.32a104.57,104.57,0,0,0,11.41,12A95.18,95.18,0,0,0,267,336.72a69.92,69.92,0,0,0,15.09,7.13,57,57,0,0,0,8.14,1.92A52,52,0,0,0,298.58,346.32Zm0,.4a51.64,51.64,0,0,1-8.43-.48,57.78,57.78,0,0,1-8.24-1.86,73.48,73.48,0,0,1-15.4-6.86,102.75,102.75,0,0,1-13.76-9.75A106.74,106.74,0,0,1,240.64,316l-.15-.18.14-.19a107.46,107.46,0,0,1,11.29-12.54A103.06,103.06,0,0,1,265,292.44a73.76,73.76,0,0,1,14.92-7.91,58.73,58.73,0,0,1,8.12-2.42,52.7,52.7,0,0,1,8.41-1.06,52.15,52.15,0,0,1,8.47.51,58.32,58.32,0,0,1,8.25,1.89,73.77,73.77,0,0,1,15.41,6.92,103.75,103.75,0,0,1,13.74,9.79A106.76,106.76,0,0,1,354.4,312l.16.18-.14.19a108.42,108.42,0,0,1-11.33,12.51A102.71,102.71,0,0,1,330,335.45a73.79,73.79,0,0,1-14.92,7.85,57,57,0,0,1-8.1,2.39A52.57,52.57,0,0,1,298.59,346.72Z" transform="translate(-203.51 -190.81)"/><path class="cls-1" d="M322.84,309.2c0-14.32-11.85-25.93-26.48-25.93s-26.48,11.61-26.48,25.93,13.48,23.51,28.1,23.51S322.84,323.52,322.84,309.2Z" transform="translate(-203.51 -190.81)"/><path class="cls-2" d="M322.74,309.2a24.87,24.87,0,0,0-7.64-18,26.66,26.66,0,0,0-36.07-.7,25,25,0,0,0-8.27,17.23,20.59,20.59,0,0,0,1.66,9.45,21.25,21.25,0,0,0,5.79,7.63,27.53,27.53,0,0,0,8.39,4.83,32.35,32.35,0,0,0,9.54,2,30.27,30.27,0,0,0,9.72-.78,23.11,23.11,0,0,0,8.79-4.18,20.62,20.62,0,0,0,6.07-7.72A25,25,0,0,0,322.74,309.2Zm.2,0a25.35,25.35,0,0,1-1.76,9.95,21.86,21.86,0,0,1-5.84,8.34,24.19,24.19,0,0,1-9,5A32.4,32.4,0,0,1,296,333.63a34.71,34.71,0,0,1-10.16-2.05,29.3,29.3,0,0,1-9-5.28,23.32,23.32,0,0,1-6.14-8.42,22.32,22.32,0,0,1-1.61-10.26,26.44,26.44,0,0,1,9-18.1,27.3,27.3,0,0,1,19-6.71,26.94,26.94,0,0,1,18.26,8.09A26.43,26.43,0,0,1,322.94,309.2Z" transform="translate(-203.51 -190.81)"/><path class="cls-2" d="M316,301.59a18.51,18.51,0,0,0-37,0c0,10,9.42,16.43,19.65,16.43S316,311.6,316,301.59Z" transform="translate(-203.51 -190.81)"/><path class="cls-2" d="M315.93,301.59a17.17,17.17,0,0,0-5.35-12.54A18.48,18.48,0,0,0,298,284a18.09,18.09,0,0,0-12.5,4.67,17.17,17.17,0,0,0-5.67,11.9,14.07,14.07,0,0,0,1.17,6.49,14.55,14.55,0,0,0,4,5.22,19,19,0,0,0,5.78,3.3,22.27,22.27,0,0,0,6.57,1.39c4.47.32,9.18-.52,12.82-3.29a14.21,14.21,0,0,0,4.28-5.3A16.76,16.76,0,0,0,315.93,301.59Zm.2,0a18.84,18.84,0,0,1-1.19,7,15.48,15.48,0,0,1-4.05,5.92,17.18,17.18,0,0,1-6.35,3.59,21.54,21.54,0,0,1-7.27.88,24.7,24.7,0,0,1-7.19-1.44,20.51,20.51,0,0,1-6.34-3.76,16.41,16.41,0,0,1-4.35-6,15.77,15.77,0,0,1-1.12-7.29,18.66,18.66,0,0,1,6.41-12.78,19.15,19.15,0,0,1,20.38-3.06,18.91,18.91,0,0,1,11.07,16.95Z" transform="translate(-203.51 -190.81)"/><line class="cls-1" x1="79.91" y1="42.21" x2="68.77"/><path class="cls-2" d="M283.42,233c-1.13-3.46-2.15-7-3.16-10.45s-1.95-7-2.9-10.52-1.83-7.05-2.67-10.59l-1.26-5.31c-.38-1.78-.8-3.55-1.15-5.34.57,1.73,1.08,3.48,1.63,5.22l1.52,5.24c1,3.49,2,7,2.9,10.52s1.83,7,2.67,10.58S282.69,229.45,283.42,233Z" transform="translate(-203.51 -190.81)"/><line class="cls-1" x1="86.81" y1="38.13" x2="83.4" y2="11.23"/><path class="cls-2" d="M290.32,228.94c-.49-2.22-.87-4.44-1.23-6.68s-.67-4.46-1-6.7-.54-4.49-.74-6.74l-.28-3.38c-.06-1.13-.16-2.26-.19-3.39.26,1.1.45,2.22.67,3.33l.57,3.34c.37,2.23.67,4.47,1,6.71s.54,4.49.74,6.74S290.24,226.67,290.32,228.94Z" transform="translate(-203.51 -190.81)"/><line class="cls-1" x1="99.4" y1="26.55" x2="99.4" y2="2.38"/><path class="cls-2" d="M302.91,217.37c-.39-4-.48-8.06-.5-12.09s.11-8.06.5-12.08c.4,4,.49,8.05.5,12.08S303.31,213.34,302.91,217.37Z" transform="translate(-203.51 -190.81)"/><line class="cls-1" x1="111.66" y1="29.02" x2="120.85" y2="2.38"/><path class="cls-2" d="M315.17,219.83c.57-2.29,1.25-4.54,1.94-6.78s1.43-4.48,2.18-6.7,1.56-4.43,2.41-6.62l1.28-3.29c.46-1.08.89-2.17,1.38-3.24-.27,1.14-.61,2.27-.92,3.4l-1,3.38c-.68,2.25-1.44,4.47-2.19,6.7s-1.56,4.43-2.41,6.62S316.13,217.68,315.17,219.83Z" transform="translate(-203.51 -190.81)"/><line class="cls-1" x1="120.85" y1="26.55" x2="127.54" y2="14.47"/><path class="cls-2" d="M324.36,217.37a48.05,48.05,0,0,1,6.69-12.09,41.19,41.19,0,0,1-2.91,6.28A42.8,42.8,0,0,1,324.36,217.37Z" transform="translate(-203.51 -190.81)"/><line class="cls-1" x1="129.7" y1="35.74" x2="139.91" y2="6.81"/><path class="cls-2" d="M333.21,226.56c.66-2.48,1.42-4.93,2.19-7.36s1.61-4.86,2.45-7.28,1.72-4.81,2.66-7.19l1.41-3.57c.5-1.18,1-2.37,1.51-3.54-.32,1.24-.7,2.47-1.05,3.7L341.23,205c-.76,2.44-1.6,4.86-2.44,7.27s-1.73,4.82-2.66,7.2S334.26,224.21,333.21,226.56Z" transform="translate(-203.51 -190.81)"/><line class="cls-1" x1="137.53" y1="42.21" x2="147.74" y2="26.55"/><path class="cls-2" d="M341,233a79.32,79.32,0,0,1,4.69-8.1,74.87,74.87,0,0,1,5.53-7.55,79.32,79.32,0,0,1-4.69,8.1A78.09,78.09,0,0,1,341,233Z" transform="translate(-203.51 -190.81)"/><line class="cls-1" x1="144.34" y1="48.68" x2="167.49" y2="21.28"/><path class="cls-2" d="M347.85,239.49c1.77-2.41,3.63-4.76,5.5-7.1s3.77-4.63,5.69-6.92,3.88-4.55,5.88-6.78l3-3.33c1-1.09,2-2.2,3.08-3.27-.88,1.21-1.81,2.39-2.71,3.58l-2.78,3.52c-1.86,2.34-3.78,4.63-5.7,6.92s-3.88,4.55-5.88,6.78S349.94,237.34,347.85,239.49Z" transform="translate(-203.51 -190.81)"/><line class="cls-1" x1="155.91" y1="60.6" x2="183.15" y2="43.91"/><path class="cls-2" d="M359.43,251.41c2.16-1.57,4.38-3,6.6-4.5s4.49-2.87,6.75-4.27,4.55-2.76,6.87-4.07l3.48-2c1.18-.62,2.34-1.27,3.53-1.87-1.08.79-2.19,1.53-3.28,2.29l-3.33,2.21c-2.22,1.46-4.48,2.86-6.75,4.26s-4.55,2.76-6.87,4.07S361.8,250.19,359.43,251.41Z" transform="translate(-203.51 -190.81)"/><line class="cls-1" x1="165.11" y1="67.4" x2="179.74" y2="60.6"/><path class="cls-2" d="M368.62,258.22a57.5,57.5,0,0,1,7.11-3.86,56.28,56.28,0,0,1,7.53-3,65.28,65.28,0,0,1-14.64,6.81Z" transform="translate(-203.51 -190.81)"/><path class="cls-1" d="M367.26,273.94c-3.07,1,17.7-7.21,17.7-7.21" transform="translate(-203.51 -190.81)"/><path class="cls-2" d="M367.26,273.94a1.42,1.42,0,0,1-.31.11h0s0-.07,0-.07l0,0,0,0,.06,0,.14-.09.54-.3,1.1-.58c.74-.37,1.48-.73,2.23-1.07,1.5-.7,3-1.33,4.54-2a81.91,81.91,0,0,1,9.37-3.17,89.81,89.81,0,0,1-9,4.1c-1.53.6-3.07,1.19-4.62,1.74l-2.34.8-1.18.37-.58.2-.15.05s-.09.09-.12,0Z" transform="translate(-203.51 -190.81)"/><path class="cls-1" d="M362.49,289.88" transform="translate(-203.51 -190.81)"/><line class="cls-1" x1="188.26" y1="108.94" x2="158.98" y2="99.06"/><path class="cls-2" d="M391.77,299.75c-2.51-.63-5-1.36-7.45-2.11s-4.91-1.54-7.35-2.35-4.87-1.67-7.28-2.58l-3.62-1.37c-1.19-.49-2.4-.95-3.58-1.46,1.26.3,2.49.67,3.74,1l3.7,1.1c2.47.74,4.91,1.55,7.36,2.36s4.87,1.67,7.28,2.58S389.39,298.73,391.77,299.75Z" transform="translate(-203.51 -190.81)"/><line class="cls-1" x1="153.19" y1="113.36" x2="188.26" y2="133.79"/><path class="cls-2" d="M356.7,304.17c3,1.53,6,3.15,9,4.78s5.9,3.31,8.83,5,5.83,3.43,8.7,5.21l4.32,2.67c1.42.93,2.85,1.82,4.26,2.77-1.52-.75-3-1.56-4.51-2.34l-4.45-2.43c-3-1.63-5.9-3.32-8.83-5s-5.83-3.43-8.7-5.21S359.52,306.05,356.7,304.17Z" transform="translate(-203.51 -190.81)"/><line class="cls-1" x1="150.66" y1="149.11" x2="173.62" y2="171.91"/><path class="cls-2" d="M354.17,339.92c2.06,1.75,4,3.59,6,5.43s3.9,3.73,5.82,5.62,3.81,3.82,5.66,5.78l2.77,2.95c.9,1,1.82,2,2.7,3-1-.87-2-1.79-3-2.68l-3-2.75c-2-1.84-3.9-3.73-5.82-5.62s-3.81-3.82-5.66-5.79S355.94,342,354.17,339.92Z" transform="translate(-203.51 -190.81)"/><line class="cls-1" x1="139.91" y1="155.73" x2="147.74" y2="177.02"/><path class="cls-2" d="M343.43,346.55c1.67,3.41,3.06,6.93,4.38,10.47s2.51,7.13,3.45,10.81a127.65,127.65,0,0,1-7.83-21.28Z" transform="translate(-203.51 -190.81)"/><line class="cls-1" x1="124.2" y1="162.04" x2="129.7" y2="181.45"/><path class="cls-2" d="M327.71,352.85a91.22,91.22,0,0,1,3.23,9.57,88.82,88.82,0,0,1,2.27,9.84,89,89,0,0,1-3.23-9.57A90.59,90.59,0,0,1,327.71,352.85Z" transform="translate(-203.51 -190.81)"/><line class="cls-1" x1="158.1" y1="137.76" x2="176.88" y2="145.13"/><path class="cls-2" d="M361.61,328.58a101.3,101.3,0,0,1,18.78,7.36,87.43,87.43,0,0,1-9.57-3.22A90.31,90.31,0,0,1,361.61,328.58Z" transform="translate(-203.51 -190.81)"/><line class="cls-1" x1="86.02" y1="163.32" x2="77.39" y2="190.73"/><path class="cls-2" d="M289.53,354.13c-.53,2.35-1.15,4.66-1.8,7s-1.33,4.6-2,6.88-1.46,4.56-2.27,6.82l-1.21,3.38c-.44,1.12-.84,2.25-1.31,3.36.25-1.18.56-2.34.84-3.5l.95-3.47c.63-2.31,1.34-4.6,2.05-6.89s1.46-4.56,2.26-6.81S288.61,356.35,289.53,354.13Z" transform="translate(-203.51 -190.81)"/><line class="cls-1" x1="106.64" y1="163.02" x2="100.16" y2="191.02"/><path class="cls-2" d="M310.15,353.84c-.34,2.38-.79,4.73-1.25,7.08s-1,4.69-1.5,7-1.11,4.66-1.74,7l-.94,3.47c-.35,1.14-.67,2.3-1.05,3.44.16-1.19.38-2.37.57-3.55l.67-3.54c.46-2.35,1-4.68,1.51-7s1.11-4.66,1.74-7S309.41,356.12,310.15,353.84Z" transform="translate(-203.51 -190.81)"/><line class="cls-1" x1="67.09" y1="160.51" x2="52.77" y2="181.45"/><path class="cls-2" d="M270.61,351.32c-1,1.86-2.14,3.66-3.27,5.45s-2.3,3.55-3.49,5.3-2.41,3.48-3.67,5.17l-1.91,2.54c-.67.83-1.3,1.67-2,2.48.5-.94,1.06-1.84,1.59-2.76l1.67-2.69c1.12-1.8,2.3-3.55,3.49-5.3s2.41-3.48,3.68-5.17S269.24,353,270.61,351.32Z" transform="translate(-203.51 -190.81)"/><line class="cls-1" x1="38.81" y1="149.11" x2="26.21" y2="160.51"/><path class="cls-2" d="M242.32,339.92a65.72,65.72,0,0,1-6,6.07,62.21,62.21,0,0,1-6.64,5.33,73,73,0,0,1,12.6-11.4Z" transform="translate(-203.51 -190.81)"/><line class="cls-1" x1="32.51" y1="129.7" x2="11.57" y2="143.66"/><path class="cls-2" d="M236,320.51c-1.63,1.34-3.32,2.58-5,3.81s-3.43,2.42-5.17,3.59-3.5,2.3-5.3,3.39l-2.69,1.63c-.92.51-1.82,1.05-2.76,1.54.81-.67,1.66-1.3,2.49-2l2.54-1.86c1.69-1.24,3.43-2.41,5.17-3.58s3.5-2.31,5.29-3.39S234.16,321.51,236,320.51Z" transform="translate(-203.51 -190.81)"/><line class="cls-1" x1="28.19" y1="111.55" x2="3.3" y2="115.18"/><path class="cls-2" d="M231.7,302.36c-2,.51-4.1.9-6.17,1.29s-4.13.7-6.2,1-4.16.58-6.24.79l-3.14.32c-1,.07-2.09.17-3.14.21,1-.26,2.05-.46,3.07-.7l3.09-.59c2.07-.39,4.14-.71,6.21-1s4.16-.58,6.24-.79S229.6,302.46,231.7,302.36Z" transform="translate(-203.51 -190.81)"/><line class="cls-1" x1="51.12" y1="154.81" x2="35.34" y2="174.41"/><path class="cls-2" d="M254.63,345.62c-1.15,1.76-2.39,3.46-3.64,5.14s-2.55,3.33-3.86,5-2.65,3.26-4,4.83L241,362.92c-.72.77-1.42,1.56-2.16,2.3.56-.89,1.18-1.73,1.78-2.6l1.86-2.54c1.24-1.69,2.55-3.33,3.86-5s2.64-3.25,4-4.83S253.16,347.12,254.63,345.62Z" transform="translate(-203.51 -190.81)"/><line class="cls-1" x1="37.36" y1="90.61" y2="83.2"/><path class="cls-2" d="M240.87,281.43c-3.15-.42-6.28-.94-9.41-1.48s-6.25-1.13-9.37-1.74-6.22-1.26-9.31-2l-4.65-1.07c-1.54-.39-3.08-.74-4.62-1.16,1.58.19,3.15.45,4.72.68l4.7.79c3.13.53,6.24,1.13,9.36,1.74s6.22,1.26,9.32,2S237.8,280.61,240.87,281.43Z" transform="translate(-203.51 -190.81)"/><line class="cls-1" x1="38.81" y1="75.91" x2="7.49" y2="54.13"/><path class="cls-2" d="M242.32,266.73c-2.73-1.65-5.39-3.39-8-5.14s-5.28-3.54-7.9-5.35-5.2-3.65-7.76-5.54l-3.84-2.84c-1.25-1-2.53-1.92-3.77-2.92,1.37.81,2.7,1.68,4.05,2.52l4,2.61c2.66,1.74,5.28,3.55,7.89,5.35s5.21,3.66,7.77,5.55S239.83,264.74,242.32,266.73Z" transform="translate(-203.51 -190.81)"/><line class="cls-1" x1="43.23" y1="58.55" x2="26.21" y2="43.91"/><path class="cls-2" d="M246.74,249.37c-3.09-2.15-6-4.52-8.83-7a110,110,0,0,1-8.19-7.69,125.43,125.43,0,0,1,17,14.64Z" transform="translate(-203.51 -190.81)"/><line class="cls-1" x1="52.77" y1="51.23" x2="26.21" y2="24.68"/><path class="cls-2" d="M256.28,242.05c-2.36-2.07-4.64-4.22-6.91-6.37s-4.5-4.35-6.72-6.56-4.41-4.44-6.56-6.72L232.87,219c-1.05-1.17-2.12-2.31-3.15-3.5,1.19,1,2.33,2.1,3.5,3.15l3.41,3.22c2.28,2.15,4.5,4.35,6.72,6.56s4.41,4.44,6.56,6.72S254.21,239.69,256.28,242.05Z" transform="translate(-203.51 -190.81)"/><path class="cls-1" d="M263.44,237.11" transform="translate(-203.51 -190.81)"/><line class="cls-1" x1="49.02" y1="29.02" x2="61.62" y2="46.3"/><path class="cls-2" d="M252.53,219.83a116,116,0,0,1,12.6,17.28,99.12,99.12,0,0,1-6.7-8.35A100.58,100.58,0,0,1,252.53,219.83Z" transform="translate(-203.51 -190.81)"/><circle class="cls-3" cx="100.16" cy="106.98" r="7.91"/></svg>