<svg id="Layer_2" data-name="Layer 2" xmlns="http://www.w3.org/2000/svg" viewBox="0 0 149.63 146.25"><defs><style>.cls-1{fill:#231f20;}</style></defs><path class="cls-1" d="M67,103a71.81,71.81,0,0,1-8.53-25.22A55.88,55.88,0,0,1,58.2,64.2a42.65,42.65,0,0,1,3.54-13.28c.51-1,.95-2.12,1.54-3.12l1.79-3L67.12,42c.67-.94,1.5-1.75,2.25-2.64A52.24,52.24,0,0,1,80,30.47a87,87,0,0,1,25-10.74l8.66-2.34-5.51,7.25c-1.53,2-3.08,4.3-4.49,6.55s-2.78,4.59-4,6.94a90.1,90.1,0,0,0-6.28,14.61,53.34,53.34,0,0,0-2.74,15.19,30.24,30.24,0,0,0,3.09,14.34,31.23,31.23,0,0,0,9.72,11,55.18,55.18,0,0,0,13.77,7c10,3.51,20.7,5.14,31.46,6.16l7.4.7-5.31,5A43.41,43.41,0,0,1,147.3,115q-1.73,1.32-3.56,2.52a46.89,46.89,0,0,1-7.78,4.11,31.54,31.54,0,0,1-8.79,2.23,22.32,22.32,0,0,1-9.3-1,23.15,23.15,0,0,1-8-4.63l-6.14-5.41a53.82,53.82,0,0,0-6.14-4.78,13.08,13.08,0,0,0-3.12-1.41,11,11,0,0,0-3.38-.37,24.67,24.67,0,0,0-3.73.43c-1.29.26-2.58.51-3.8.87a34.44,34.44,0,0,0-7.15,3c-.57.32-1.11.64-1.7,1l-1.79,1c-1.2.69-2.4,1.36-3.62,2-2.43,1.32-4.9,2.58-7.45,3.71a39.3,39.3,0,0,1-8,2.75,11.84,11.84,0,0,1-4.44.1A19.49,19.49,0,0,1,45.21,120a36.57,36.57,0,0,1-7.33-4A62.87,62.87,0,0,1,31.35,111l.26-.3a63.59,63.59,0,0,0,6.67,4.71,39.38,39.38,0,0,0,7.3,3.62,13.69,13.69,0,0,0,7.91.75,37.63,37.63,0,0,0,7.6-2.89,150.65,150.65,0,0,0,14.19-8.18,37.07,37.07,0,0,1,15.64-4.89,13.5,13.5,0,0,1,4.15.36,15.46,15.46,0,0,1,3.84,1.61,55.25,55.25,0,0,1,6.62,4.9c4.28,3.36,8,7.7,13.3,9.18a19.55,19.55,0,0,0,8,.71,28.74,28.74,0,0,0,7.81-2.08,47.27,47.27,0,0,0,13.52-8.92l.21.59c-11-.89-22-2.52-32.49-6.15a59.53,59.53,0,0,1-14.8-7.48A34.7,34.7,0,0,1,90.15,84a34.32,34.32,0,0,1-3.43-16.18,55.8,55.8,0,0,1,3-16.3,93.1,93.1,0,0,1,6.71-15.15,110.1,110.1,0,0,1,9-13.89l.33.5a84.22,84.22,0,0,0-24.36,9.86,49.54,49.54,0,0,0-10.23,8.23c-.72.83-1.53,1.58-2.18,2.46l-2,2.62L65.31,49c-.58.92-1,1.94-1.52,2.91C60,59.83,59,68.89,59.92,77.61a74.31,74.31,0,0,0,7.44,25.18Z" transform="translate(-31.1 -17.39)"/><path class="cls-1" d="M65,130.6a14.76,14.76,0,0,1,4.91-6.93,18.1,18.1,0,0,1,8.06-3.6,13.79,13.79,0,0,1,2.21-.29l1.11-.1h1.1c.74,0,1.49,0,2.22.06l2.18.24a14.26,14.26,0,0,1,2.17.37c.71.16,1.43.31,2.14.49a39,39,0,0,1,8.21,3.39c1.26.77,2.51,1.57,3.67,2.44,2.34,1.7,4.46,3.55,6.51,5.18a30.16,30.16,0,0,0,6,4l1.56.63,1.61.44a25.3,25.3,0,0,0,3.49.45,29.56,29.56,0,0,0,7.3-.12,23.51,23.51,0,0,0,6.72-2.23c4.47-2.16,9-5.51,14-8.08l.92-.5,1.08-.53a9,9,0,0,1,1.11-.46,11.86,11.86,0,0,1,1.14-.4,15.64,15.64,0,0,1,4.73-.71,20.7,20.7,0,0,1,8.82,2.09,32.69,32.69,0,0,1,7.12,4.8,36.94,36.94,0,0,1,5.62,6.18l-.29.26a38.37,38.37,0,0,0-13.22-9.27,18.61,18.61,0,0,0-7.89-1.37,15.2,15.2,0,0,0-7.52,2.6c-2.33,1.41-4.59,2.92-6.87,4.42s-4.56,3-7,4.31a26.14,26.14,0,0,1-7.8,2.73,34,34,0,0,1-8.25.27,21.39,21.39,0,0,1-8-2,31.75,31.75,0,0,1-6.81-4.67c-4.13-3.56-8.12-7.36-13.1-9.58a36,36,0,0,0-3.76-1.51c-.65-.2-1.3-.36-2-.55a17.19,17.19,0,0,0-2-.46l-2-.36c-.67-.09-1.34-.11-2-.18l-1-.07-1,0a13.48,13.48,0,0,0-2,.12,16.8,16.8,0,0,0-7.55,2.64,14.78,14.78,0,0,0-5.29,5.94Z" transform="translate(-31.1 -17.39)"/><path class="cls-1" d="M137.91,153a11.42,11.42,0,0,1-3.74,7.57,12.71,12.71,0,0,1-8.44,2.88,27.23,27.23,0,0,1-8.58-1.58,50.28,50.28,0,0,1-7.73-3.46,71.21,71.21,0,0,1-7.12-4.35,74.94,74.94,0,0,0-6.56-4c-4.38-2.43-9-4.18-12.67-3.07a15.55,15.55,0,0,0-5.73,3.16c-2,1.51-4,3.39-6.22,5.09a37.72,37.72,0,0,1-15.59,7.54,41.91,41.91,0,0,1-4.26.68,28.63,28.63,0,0,1-4.35.16,20.49,20.49,0,0,1-8.7-2.06,13.14,13.14,0,0,1-6-6.6,15.71,15.71,0,0,1-.91-8.34l.39,0a16.13,16.13,0,0,0,1.73,7.68,11.62,11.62,0,0,0,5.66,5.3,18.19,18.19,0,0,0,7.77,1.3,35.09,35.09,0,0,0,7.89-1.19,36,36,0,0,0,14-7.43c2.08-1.68,4-3.51,6.16-5.21a19.55,19.55,0,0,1,7.13-4,15,15,0,0,1,8.16.32,34.85,34.85,0,0,1,7.41,3.35c4.71,2.7,8.8,6.25,13.42,9a50.48,50.48,0,0,0,7.13,3.66,24.91,24.91,0,0,0,7.7,2,10.42,10.42,0,0,0,11.64-8.4Z" transform="translate(-31.1 -17.39)"/><path class="cls-1" d="M122.87,40.8a50.66,50.66,0,0,1,4,7.92,88.31,88.31,0,0,1,5,16.72,51.21,51.21,0,0,1,1,8.81,51.06,51.06,0,0,1-4-7.91,86.57,86.57,0,0,1-2.9-8.24c-.82-2.79-1.52-5.62-2.07-8.49A52,52,0,0,1,122.87,40.8Z" transform="translate(-31.1 -17.39)"/><path class="cls-1" d="M116.46,69A50.81,50.81,0,0,1,121,61.32a87.15,87.15,0,0,1,5.37-6.89,83.5,83.5,0,0,1,6-6.33,50.78,50.78,0,0,1,6.88-5.58,51.62,51.62,0,0,1-4.5,7.64q-2.52,3.59-5.37,6.88a85.77,85.77,0,0,1-6,6.33A51.62,51.62,0,0,1,116.46,69Z" transform="translate(-31.1 -17.39)"/><path class="cls-1" d="M111.76,54a51.17,51.17,0,0,1,8.86.26,86.52,86.52,0,0,1,8.63,1.36,84,84,0,0,1,8.45,2.21,50.1,50.1,0,0,1,8.21,3.33,52.19,52.19,0,0,1-8.86-.25c-2.9-.31-5.78-.78-8.62-1.37A85.36,85.36,0,0,1,120,57.27,50.69,50.69,0,0,1,111.76,54Z" transform="translate(-31.1 -17.39)"/></svg>