<svg id="Layer_1" data-name="Layer 1" xmlns="http://www.w3.org/2000/svg" viewBox="0 0 69.4 58.7"><defs><style>.cls-1{fill:#7d1416;}.cls-2{fill:none;stroke:#7d1416;stroke-miterlimit:10;stroke-width:4px;}</style></defs><path class="cls-1" d="M304.13,286.79c5.91-.42,11.82-.69,17.73-1l4.43-.17,2.22-.07.55,0h.42l-.17,0a.73.73,0,0,0-.32,1.27l.07.06s.06,0,0,0l-.14-.08-.28-.16-.53-.35c-.35-.25-.67-.5-1-.77a16.3,16.3,0,0,1-1.69-1.74,21.41,21.41,0,0,1-2.61-4,20.67,20.67,0,0,1-2.24-9.26,21.17,21.17,0,0,1,2.19-9.38,18.37,18.37,0,0,1,6.59-7.21,20.79,20.79,0,0,1,9.2-3.08,20,20,0,0,1,4.89.17,23.14,23.14,0,0,1,4.67,1.25,20.18,20.18,0,0,1,8.05,5.37,16,16,0,0,1,4,9,21.11,21.11,0,0,1-1.28,9.42,37.93,37.93,0,0,1-4.14,8.19c-.41.64-.84,1.27-1.28,1.87l-.66.92c-.1.13-.27.38-.25.34s0,0,0-.25a.77.77,0,0,0-.34-.46.57.57,0,0,0-.31-.1l.52,0,1.11,0,2.22.09c5.91.27,11.82.53,17.73,1-5.91.42-11.82.69-17.73.95l-2.22.09-1.11,0-.58,0a1.54,1.54,0,0,1-.85-.25,1.44,1.44,0,0,1-.63-.9,2,2,0,0,1,.18-1.31c.21-.37.25-.41.36-.6l.57-.92c.38-.62.75-1.24,1.09-1.88a39.25,39.25,0,0,0,3.4-7.81,19.1,19.1,0,0,0,.77-8,12.49,12.49,0,0,0-3.34-6.86,17.33,17.33,0,0,0-6.64-4.26,17.61,17.61,0,0,0-7.84-1.09,17,17,0,0,0-7.48,2.41,14.94,14.94,0,0,0-5.31,5.65,17.72,17.72,0,0,0-2.06,7.67,18.71,18.71,0,0,0,1.55,7.91,18.52,18.52,0,0,0,2,3.53,14.83,14.83,0,0,0,1.32,1.52,8.8,8.8,0,0,0,.72.65,3.37,3.37,0,0,0,.37.29l.19.13.09.07.13.08.18.15a1.77,1.77,0,0,1-.75,3,1.7,1.7,0,0,1-.44,0h-.42l-.55,0-2.22-.08-4.43-.17C316,287.48,310,287.22,304.13,286.79Z" transform="translate(-304.13 -250.83)"/><line class="cls-2" x1="0.81" y1="55.55" x2="69.36" y2="56.7"/></svg>