<svg id="Layer_1" data-name="Layer 1" xmlns="http://www.w3.org/2000/svg" viewBox="0 0 59 48.34"><defs><style>.cls-1{fill:none;stroke:#7d1416;stroke-miterlimit:10;stroke-width:4px;}.cls-2{fill:#7d1416;}</style></defs><circle class="cls-1" cx="46.81" cy="30.3" r="10.2"/><path class="cls-2" d="M363.14,298.35a44.54,44.54,0,0,1-11.66,6.77,45.84,45.84,0,0,1-13.29,3.22,36,36,0,0,1-7-.09,30.1,30.1,0,0,1-6.8-1.63,26,26,0,0,1-6.09-3.35,22.16,22.16,0,0,1-4.71-4.92,42.46,42.46,0,0,0,5.72,3.23,32.91,32.91,0,0,0,6,2,40.67,40.67,0,0,0,6.21.85,47.53,47.53,0,0,0,6.31-.11,77.24,77.24,0,0,0,12.63-2.22C354.71,301.08,358.88,299.77,363.14,298.35Z" transform="translate(-307.63 -260.13)"/><circle class="cls-1" cx="12.2" cy="18.03" r="10.2"/><path class="cls-2" d="M311.11,270.25a44.44,44.44,0,0,1,11.67-6.77,45.85,45.85,0,0,1,13.29-3.23,35.9,35.9,0,0,1,6.95.1,30.71,30.71,0,0,1,6.81,1.62,26.35,26.35,0,0,1,6.09,3.36,22.62,22.62,0,0,1,4.71,4.92,42.55,42.55,0,0,0-5.72-3.24,33.23,33.23,0,0,0-6-2,39.46,39.46,0,0,0-6.21-.85,45.75,45.75,0,0,0-6.3.11,76,76,0,0,0-12.63,2.21C319.55,267.51,315.37,268.83,311.11,270.25Z" transform="translate(-307.63 -260.13)"/></svg>