<svg id="Layer_1" data-name="Layer 1" xmlns="http://www.w3.org/2000/svg" viewBox="0 0 69.33 85.53"><defs><style>.cls-1{fill:#7d1416;}</style></defs><path class="cls-1" d="M301.63,243.33a4.46,4.46,0,0,1,1.85.85,9.15,9.15,0,0,1,1.52,1.4,19,19,0,0,1,2.33,3.4,39.73,39.73,0,0,1,3,7.65,98.5,98.5,0,0,1,3.09,16.11c.17,1.36.29,2.72.43,4.08l.34,4.08c.08,1.36.19,2.72.24,4.09s0,2.72,0,4.09c-.09,5.44-.21,10.88-.48,16.31l-4-.12.3-32.1.07-8c0-1.34,0-2.63.1-4.13a24.19,24.19,0,0,1,.69-4.31,23.26,23.26,0,0,1,3.69-7.91,20.5,20.5,0,0,1,3-3.3A11.25,11.25,0,0,1,322,243a8.15,8.15,0,0,1,1.34-.27,6.32,6.32,0,0,1,1.5,0,5.73,5.73,0,0,1,2.78,1.28,11,11,0,0,1,2.8,4,37.65,37.65,0,0,1,2.32,8.16,127.91,127.91,0,0,1,1.65,16.22c.47,10.8.3,21.53-.26,32.31l-4-.18.27-8.81.14-4.41c0-1.46.15-3,.05-4.29-.26-5.88-.5-11.79-.55-17.72,0-3,0-5.94.22-9a25.87,25.87,0,0,1,.76-4.7,31.64,31.64,0,0,1,1.51-4.46,17.84,17.84,0,0,1,5.94-7.84,11.45,11.45,0,0,1,4.92-1.93,12,12,0,0,1,2.61-.09l.66,0a8.17,8.17,0,0,1,.86.17,6.14,6.14,0,0,1,1.53.71,10.2,10.2,0,0,1,3.38,4.29A27.61,27.61,0,0,1,354,251a67.54,67.54,0,0,1,1.69,8.94c.75,5.95,1.06,11.89,1.23,17.82.06,3,.13,5.92.16,8.88s-.26,5.92-.43,8.87c-.39,5.91-.87,11.79-1.49,17.67v.09h0a4.43,4.43,0,0,0,.13,2,3.74,3.74,0,0,0,1.11,1.72,7.48,7.48,0,0,0,4.3,1.47,31.72,31.72,0,0,0,9.85-1.3,32,32,0,0,1-9.88,2.33,8.4,8.4,0,0,1-5.19-1.34,5.36,5.36,0,0,1-1.79-2.3,6.24,6.24,0,0,1-.43-2.93v.09c.11-5.86.09-11.75,0-17.62,0-2.93-.2-5.86-.21-8.79s0-5.85-.07-8.78c-.16-5.84-.47-11.67-1.2-17.41a63.59,63.59,0,0,0-1.58-8.4,24.33,24.33,0,0,0-1.35-3.83,6.47,6.47,0,0,0-1.94-2.63,1.48,1.48,0,0,0-.46-.22l-.22-.05-.45,0a8.1,8.1,0,0,0-1.78.06,7.41,7.41,0,0,0-3.23,1.27,14,14,0,0,0-4.52,6.11,27.35,27.35,0,0,0-1.31,3.89,17.09,17.09,0,0,0-.43,2c-.11.62-.17,1.32-.23,2-.21,2.81-.22,5.75-.2,8.66.05,5.84.28,11.69.55,17.58.1,1.62,0,3.06-.05,4.53l-.14,4.43-.28,8.84-4-.18c.55-10.6.72-21.29.25-31.88a123.16,123.16,0,0,0-1.59-15.69,33.46,33.46,0,0,0-2-7.25,7.4,7.4,0,0,0-1.7-2.56,1.73,1.73,0,0,0-.81-.4,2,2,0,0,0-.5,0,3.61,3.61,0,0,0-.62.13c-1.74.52-3.64,2.39-5,4.3a19.16,19.16,0,0,0-3.05,6.55,20.91,20.91,0,0,0-.59,3.61c-.08,1.17-.06,2.55-.08,3.88l-.07,8-.3,32.1-4-.12c.24-5.38.46-10.75.41-16.12-.05-2.69,0-5.37.05-8.05v-4c0-1.34,0-2.68-.09-4a107.91,107.91,0,0,0-1.62-16,41.57,41.57,0,0,0-2.22-7.67,17.13,17.13,0,0,0-1.89-3.5,8.55,8.55,0,0,0-1.31-1.5A4.31,4.31,0,0,0,301.63,243.33Z" transform="translate(-301.63 -241.27)"/><path class="cls-1" d="M360.45,308.46c1.77,1.35,3.46,2.77,5.15,4.21s3.33,2.91,5,4.4l.4.36-.39.37c-1.64,1.55-3.28,3.1-5,4.6l-2.55,2.24c-.87.72-1.72,1.46-2.61,2.16.73-.86,1.52-1.68,2.27-2.52l2.35-2.44c1.57-1.63,3.19-3.2,4.82-4.76v.73c-1.63-1.51-3.25-3-4.82-4.58S361.94,310.11,360.45,308.46Z" transform="translate(-301.63 -241.27)"/></svg>