<svg id="Layer_3" data-name="Layer 3" xmlns="http://www.w3.org/2000/svg" viewBox="0 0 327.91 262.54"><defs><style>.cls-1{fill:#0c0c0c;}</style></defs><path class="cls-1" d="M304.13,238.06a33.6,33.6,0,0,1,2.46-6.12,20.81,20.81,0,0,1,3.93-5.4,9.71,9.71,0,0,1,2.91-1.86,7.2,7.2,0,0,1,3.5-.52,11.41,11.41,0,0,1,6.19,3.06,23.75,23.75,0,0,1,4.31,5.24,34.94,34.94,0,0,1,3,6,28.74,28.74,0,0,1,1.8,13.37,26.46,26.46,0,0,1-5.56,12.28,90.56,90.56,0,0,1-8.93,9.8q-2.35,2.31-4.75,4.56a30.58,30.58,0,0,1-5.13,4.28A9.11,9.11,0,0,1,304.6,284a6.84,6.84,0,0,1-3.39-.38,10.26,10.26,0,0,1-4.91-4.35,10.66,10.66,0,0,0,5.08,3.85,6.12,6.12,0,0,0,3.09.13A8.09,8.09,0,0,0,307.3,282a30.39,30.39,0,0,0,4.73-4.38l4.56-4.72a103.77,103.77,0,0,0,8.52-9.83,24.87,24.87,0,0,0,5.1-11.43,27.15,27.15,0,0,0-1.6-12.45,28.1,28.1,0,0,0-6.55-10.79,10.26,10.26,0,0,0-5.29-2.92,7.3,7.3,0,0,0-5.61,1.83,19.76,19.76,0,0,0-4.11,4.92A40.51,40.51,0,0,0,304.13,238.06Z" transform="translate(-127.53 -224.12)"/><path class="cls-1" d="M316.38,249.29c-1.05-1.17-2.07-2.36-3.09-3.56l-.76-.91a1,1,0,0,0-.7-.44.91.91,0,0,0-.7.23.66.66,0,0,0-.2.29,1.62,1.62,0,0,0-.06.17l-.06.29-.28,1.24-.75-1.06a10.92,10.92,0,0,1-2.09-6.32,7.33,7.33,0,0,1,.91-3.4,8.69,8.69,0,0,1,2.34-2.59,7,7,0,0,1,1.43-.93,13.2,13.2,0,0,1,1.51-.74,9.65,9.65,0,0,1,3.4-.77,7.15,7.15,0,0,1,3.51.77,8.88,8.88,0,0,1,2.73,2.22,15.93,15.93,0,0,1,3,5.94,17.51,17.51,0,0,1,.44,6.55,17,17,0,0,1-5.79,11.19,18.45,18.45,0,0,0,4.38-11.29,17.56,17.56,0,0,0-.72-5.94,15.35,15.35,0,0,0-2.76-5.18,7,7,0,0,0-2.15-1.72,5.67,5.67,0,0,0-2.57-.56,10.18,10.18,0,0,0-5.28,2,7.13,7.13,0,0,0-1.94,2,6.35,6.35,0,0,0-.82,2.6,10,10,0,0,0,1.44,5.58l-1,.18.09-.28a2.43,2.43,0,0,1,.16-.37,1.67,1.67,0,0,1,.53-.62,1.82,1.82,0,0,1,1.52-.32,1.85,1.85,0,0,1,.71.33,2.65,2.65,0,0,1,.46.54l.66,1C314.69,246.64,315.55,248,316.38,249.29Z" transform="translate(-127.53 -224.12)"/><path class="cls-1" d="M312.3,254.23a22.79,22.79,0,0,1-2.84.73,2.58,2.58,0,0,0-1.61,1.18,2.29,2.29,0,0,0-.29.83,7.21,7.21,0,0,0,0,1.08,4.57,4.57,0,0,1-1.67,3.61,4.45,4.45,0,0,1-.87.56c-.13.07-.36.16-.42.19l-.18.08a2,2,0,0,0-.62.47,2.22,2.22,0,0,0-.54,1.59,2.46,2.46,0,0,0,.24.92,10.42,10.42,0,0,0,.75,1.08,24.85,24.85,0,0,1,1.55,2.49,23.52,23.52,0,0,1-2.57-1.42,8.77,8.77,0,0,1-1.27-.92,4,4,0,0,1-1-1.6,4.36,4.36,0,0,1,.53-3.81,4.75,4.75,0,0,1,1.49-1.4l.68-.33a1.81,1.81,0,0,0,.32-.22,2,2,0,0,0,.73-1.34,6.28,6.28,0,0,1,.28-1.74,4.07,4.07,0,0,1,1-1.65,4,4,0,0,1,3.39-1.11A22.79,22.79,0,0,1,312.3,254.23Z" transform="translate(-127.53 -224.12)"/><path class="cls-1" d="M340.81,282.15c1.27,8.1,2.59,16.2,4.17,24.24s3.2,16.06,5.17,24a159.31,159.31,0,0,0,7.36,23.23,58.16,58.16,0,0,0,2.62,5.38c.48.87,1,1.69,1.55,2.5a20.67,20.67,0,0,0,1.79,2.22c.58.68,1.42,1.37,2.14,2.06s1.49,1.38,2.26,2c1.51,1.35,3.09,2.62,4.67,3.87a98.74,98.74,0,0,0,20.89,12.2c7.41,3.37,15.07,6.26,22.73,9.16,3.83,1.45,7.69,2.81,11.54,4.23l5.8,2.1c.5.19.94.33,1.48.55l1.42.67c.93.47,1.85.95,2.75,1.46a52.45,52.45,0,0,1,10.08,7.24,25.62,25.62,0,0,1,4,4.74,14.15,14.15,0,0,1,2.2,5.74,14.07,14.07,0,0,0-2.57-5.49,25.24,25.24,0,0,0-4.18-4.4,51.26,51.26,0,0,0-10.24-6.53c-.91-.45-1.82-.9-2.74-1.31l-1.39-.59c-.41-.15-.95-.31-1.42-.46l-5.85-1.86c-3.9-1.27-7.81-2.55-11.69-3.89-7.78-2.64-15.51-5.49-23.1-8.77-1.91-.78-3.76-1.73-5.64-2.6s-3.71-1.87-5.51-2.92A84.67,84.67,0,0,1,370.7,374c-1.63-1.31-3.25-2.62-4.79-4-.78-.68-1.55-1.38-2.3-2.09s-1.51-1.35-2.27-2.22a26.59,26.59,0,0,1-3.73-5.31,53.84,53.84,0,0,1-2.71-5.7,117.76,117.76,0,0,1-4-11.79c-1.16-4-2.13-8-3-12A372.84,372.84,0,0,1,340.81,282.15Z" transform="translate(-127.53 -224.12)"/><path class="cls-1" d="M299.36,298a11.58,11.58,0,0,1-.43,6.73,20,20,0,0,1-3.46,6,37.81,37.81,0,0,1-10.71,8.55c-8,4.49-16.76,7.22-25.56,9.29l-3.31.73-3.33.64c-2.21.45-4.44.79-6.67,1.15s-4.47.6-6.7.9a50.93,50.93,0,0,1-6.86.41,41.1,41.1,0,0,1-6.89-.54,20.81,20.81,0,0,1-3.4-.9,9.33,9.33,0,0,1-3.18-1.84,9.9,9.9,0,0,1-2-3,23,23,0,0,1-1.94-10,13.65,13.65,0,0,0,.56,3.3,27.1,27.1,0,0,0,1,3.16,13.67,13.67,0,0,0,3.32,5.4,7.94,7.94,0,0,0,2.73,1.3,19.45,19.45,0,0,0,3.15.59,41.92,41.92,0,0,0,6.54.14,64.56,64.56,0,0,0,6.55-.66c2.21-.37,4.42-.69,6.61-1.1s4.4-.74,6.57-1.22l3.28-.66,3.25-.75c4.34-1,8.64-2.11,12.84-3.5a87.75,87.75,0,0,0,12.29-4.92,51,51,0,0,0,5.68-3.31,30.55,30.55,0,0,0,5-4.16,19.54,19.54,0,0,0,3.78-5.31,12.93,12.93,0,0,0,1-3.11A9.2,9.2,0,0,0,299.36,298Z" transform="translate(-127.53 -224.12)"/><path class="cls-1" d="M269.83,325.8a18.28,18.28,0,0,1,3.05,6.89,23.31,23.31,0,0,1,.5,7.59,22.71,22.71,0,0,1-1.9,7.38,21.76,21.76,0,0,1-1.81,3.32,22.43,22.43,0,0,1-2.39,2.91c.28-1.25.75-2.36,1.06-3.54s.68-2.29.91-3.45A45.45,45.45,0,0,0,270.4,340a48,48,0,0,0,.15-7A65.66,65.66,0,0,0,269.83,325.8Z" transform="translate(-127.53 -224.12)"/><path class="cls-1" d="M269.66,343.17a96.65,96.65,0,0,1-11.78,8.28c-1,.65-2.06,1.24-3.1,1.85s-2.08,1.22-3.13,1.79l-3.19,1.7c-1.06.58-2.13,1.13-3.21,1.64a186,186,0,0,1-26.86,10.65,212.43,212.43,0,0,1-28.2,6.45l-7.18.94c-2.43.34-4.7.54-7,1a40.05,40.05,0,0,0-12.8,5.16,45.66,45.66,0,0,0-10.52,9.06,65.54,65.54,0,0,0-7.93,11.58,114.58,114.58,0,0,0-10.06,26.52A208.54,208.54,0,0,0,129.64,458a258.65,258.65,0,0,0-1.77,28.67c-.32-4.79-.38-9.6-.31-14.4s.27-9.61.62-14.41a189.41,189.41,0,0,1,4.26-28.57A112.25,112.25,0,0,1,142.28,402a65.7,65.7,0,0,1,8.22-12.15,48.39,48.39,0,0,1,11.16-9.69,42.65,42.65,0,0,1,13.77-5.47c2.41-.53,4.93-.75,7.25-1.06l7.09-.88a228.45,228.45,0,0,0,28-5.88,203.08,203.08,0,0,0,26.89-9.73c1.11-.46,2.19-1,3.27-1.48l3.23-1.54c1.08-.52,2.13-1.09,3.19-1.63s2.13-1.09,3.17-1.69A119,119,0,0,0,269.66,343.17Z" transform="translate(-127.53 -224.12)"/><path class="cls-1" d="M328.55,296.44l-3.74,23.66c-1.25,7.88-2.53,15.75-3.67,23.64s-2.26,15.77-3.12,23.69c-.42,3.95-.78,7.92-.95,11.89s-.26,8,.76,11.85a22.61,22.61,0,0,1-1.35-5.85c-.21-2-.34-4-.39-6-.07-4,.09-8,.37-12,.55-8,1.55-15.93,2.7-23.84s2.55-15.79,4.12-23.62S326.57,304.19,328.55,296.44Z" transform="translate(-127.53 -224.12)"/><path class="cls-1" d="M309.15,376.36a48.33,48.33,0,0,1,2.83,8.78,57.32,57.32,0,0,1,1.35,9.16c.08,1.55.1,3.1,0,4.66a34.53,34.53,0,0,1-.54,4.64,18.43,18.43,0,0,1-3.68,8.5,26.73,26.73,0,0,0,2.13-8.72,60.89,60.89,0,0,0,.06-9c-.17-3-.51-6-.89-9S309.6,379.4,309.15,376.36Z" transform="translate(-127.53 -224.12)"/></svg>