<svg id="Layer_2" data-name="Layer 2" xmlns="http://www.w3.org/2000/svg" viewBox="0 0 291.13 307.26"><defs><style>.cls-1,.cls-2{fill:none;}.cls-1,.cls-3,.cls-4,.cls-5{stroke:#0c0c0c;}.cls-1,.cls-2,.cls-3,.cls-4,.cls-5{stroke-miterlimit:10;}.cls-1,.cls-2,.cls-3{stroke-width:5px;}.cls-2{stroke:#050505;}.cls-3{fill:#0c0c0c;}.cls-4{fill:#f8f7f7;}.cls-4,.cls-5{stroke-width:4px;}.cls-5{fill:#f9f7f7;}</style></defs><polygon class="cls-1" points="52.88 9.36 88.13 68.91 48.44 110.57 52.88 9.36"/><polygon class="cls-2" points="238.4 8.16 200.59 67.72 241.8 107.57 238.4 8.16"/><path class="cls-1" d="M339.25,446.34l3.86-55.94,44.42-73.53,80.68,75.06-40.85-6.64,50.55,22.47-34.72,19.41,19.41-1.54-61.79,36.26L387,516.53l-38.81,24L339,533.38l-6.13,7.15-39.32-21.45-14.29-55.66L217,426.15l44.93,7.14L198.6,409.8,264,376.61l-56.72,15.32L288,316.87l45.44,72,5.05,57.48A.4.4,0,0,0,339.25,446.34Z" transform="translate(-192.37 -236.43)"/><polygon class="cls-1" points="146.65 296.95 127.25 270.91 131.33 265.29 164.01 265.29 167.08 272.44 146.65 296.95"/><polyline class="cls-3" points="148.89 195.31 179.33 158.28 214.06 151.95 194.65 173.85 178.82 173.85 147.42 197.06 115.5 157.38 79.25 151.95 99.16 173.85 114.99 173.85 146.65 198.97"/><polygon class="cls-4" points="180.89 160.07 207.67 155.06 194.28 170.91 176.1 170.91 180.89 160.07"/><polygon class="cls-5" points="119.59 171.62 111.95 158.91 88.13 154.48 98.47 171.62 119.59 171.62"/></svg>