<svg id="Layer_1" data-name="Layer 1" xmlns="http://www.w3.org/2000/svg" viewBox="0 0 69.96 64.81"><defs><style>.cls-1{fill:none;stroke:#7d1416;stroke-miterlimit:10;stroke-width:7px;}.cls-2{fill:#7d1416;}</style></defs><circle class="cls-1" cx="33.48" cy="44.47" r="16.84"/><path class="cls-2" d="M302.25,360.25a5,5,0,0,1,3-.31,12.11,12.11,0,0,1,2.95.95,22.3,22.3,0,0,1,5.08,3.42,50.85,50.85,0,0,1,7.88,9.06,22.84,22.84,0,0,0,7.46,6.7,18.3,18.3,0,0,0,9.17,2.49,11.84,11.84,0,0,0,8.1-3.18,15.9,15.9,0,0,0,2.94-3.73,8.26,8.26,0,0,0,.59-1.1c.2-.38.37-.71.6-1.22.44-.94.93-1.87,1.45-2.78a23.15,23.15,0,0,1,8.82-9,15.33,15.33,0,0,1,11.93-1.34,16.89,16.89,0,0,0-10,4.21A22.92,22.92,0,0,0,356.4,373c-.33.82-.64,1.65-.91,2.5L355,377a14.16,14.16,0,0,1-.63,1.51,20.39,20.39,0,0,1-3.76,5.63,18,18,0,0,1-5.79,4,19,19,0,0,1-6.89,1.42,22.91,22.91,0,0,1-12.72-3.87,25.24,25.24,0,0,1-8.67-9.52,73.49,73.49,0,0,0-5.71-9.57,25.87,25.87,0,0,0-3.63-4.11,11.15,11.15,0,0,0-2.24-1.57A5,5,0,0,0,302.25,360.25Z" transform="translate(-302.25 -359.58)"/></svg>