<svg id="Layer_1" data-name="Layer 1" xmlns="http://www.w3.org/2000/svg" viewBox="0 0 71.37 77.87"><defs><style>.cls-1{fill:#231f20;}</style></defs><path class="cls-1" d="M303.22,223.2a13.05,13.05,0,0,1,7,4.14,17.75,17.75,0,0,1,3.82,7.35l.28,1c.07.34.12.69.18,1,.11.69.28,1.37.32,2.06.12,1.39.24,2.78.24,4.14l.17,8.21c.13,5.47.25,10.95.32,16.42l.26,16.43-2.73,0-.22-24.64-.13-24.63v-.21l0-.19a14.11,14.11,0,0,1,.54-1.66,15.44,15.44,0,0,1,2.55-4.2,14.06,14.06,0,0,1,5.32-3.89c.51-.19,1-.41,1.55-.56l1.59-.39,1.59-.21.41,0h.5a5.49,5.49,0,0,1,1,.06,6.56,6.56,0,0,1,3.57,1.72,9.8,9.8,0,0,1,2.14,2.82,22.86,22.86,0,0,1,2,6,51.07,51.07,0,0,1,.86,6,86.62,86.62,0,0,1,.19,11.84v-.14l.08,29.62-3.87.23c-.59-5.91-.92-11.74-.94-17.64a124.93,124.93,0,0,1,1-17.68,58.85,58.85,0,0,1,1.84-8.8,25.31,25.31,0,0,1,4.06-8.36,12.32,12.32,0,0,1,3.74-3.27,9.57,9.57,0,0,1,2.4-.91l.63-.16.36-.07a3.35,3.35,0,0,1,.52,0,4.9,4.9,0,0,1,1.55.36,8.12,8.12,0,0,1,3.82,3.59,19.87,19.87,0,0,1,1.83,4.34,41,41,0,0,1,1,4.43c.18,1.48.44,3,.51,4.44l.16,2.22.07,2.21c.06,1.48.07,2.95.06,4.41,0,5.86-.31,11.69-.62,17.5s-.59,11.62-.36,17.41a43.27,43.27,0,0,0,1.12,8.57,16,16,0,0,0,1.58,4,8.73,8.73,0,0,0,3,3.11,8.79,8.79,0,0,1-3.17-3,15.51,15.51,0,0,1-1.86-4,40.48,40.48,0,0,1-1.55-8.65c-.49-5.84-.42-11.69-.4-17.52s.13-11.64,0-17.43c0-1.45-.1-2.89-.19-4.32l-.14-2.15-.22-2.13c-.12-1.43-.41-2.82-.62-4.22a38.9,38.9,0,0,0-1-4.06,16.32,16.32,0,0,0-1.62-3.65,5.21,5.21,0,0,0-2.41-2.3,1.76,1.76,0,0,0-.57-.13s-.11,0,0,0l-.17.06-.43.12a6.61,6.61,0,0,0-1.66.66,9.23,9.23,0,0,0-2.71,2.52,22.79,22.79,0,0,0-3.34,7.34,56.79,56.79,0,0,0-1.62,8.31,122.67,122.67,0,0,0-.77,17.17c.13,5.75.43,11.56,1,17.24l-3.87.23-.18-29.62v-.14a82.7,82.7,0,0,0-.13-11.24,46.63,46.63,0,0,0-.77-5.48,18.81,18.81,0,0,0-1.63-4.95c-.18-.37-.41-.67-.61-1a5.23,5.23,0,0,0-.69-.77,2.72,2.72,0,0,0-1.53-.78,2.13,2.13,0,0,0-.44,0h-.23l-.31,0-1.26.16-1.22.3c-.4.1-.78.27-1.17.4a10.19,10.19,0,0,0-4,2.81,11.11,11.11,0,0,0-1.42,2c-.2.37-.38.74-.54,1.12a8.4,8.4,0,0,0-.38,1.08l0-.4-.24,24.64L315.82,284l-2.73,0,.26-16.4c.07-5.47.19-10.93.31-16.4l.18-8.21c.06-1.38,0-2.71,0-4.06,0-.68-.15-1.33-.22-2-.05-.34-.08-.67-.14-1l-.22-1a17.76,17.76,0,0,0-3.35-7.25A12.79,12.79,0,0,0,303.22,223.2Z" transform="translate(-303.22 -223.2)"/><path class="cls-1" d="M354.16,251.4a25.67,25.67,0,0,1,1.22-2.56,6.55,6.55,0,0,1,.9-1.21,7.64,7.64,0,0,1,1.12-1.08,9.41,9.41,0,0,1,6.06-2,10.44,10.44,0,0,1,9.9,8.49c.24,1,.38,1.9.55,2.86s.24,1.89.34,2.83.17,1.88.23,2.83.11,2,.11,3a39.08,39.08,0,0,1-2.07,11.75,53.42,53.42,0,0,1-5.14,10.46,31.29,31.29,0,0,1-8.26,8.69,18.38,18.38,0,0,1-2.64,1.57l-1.37.69c-.47.21-1,.34-1.46.51l-1.46.47-1.51.27c-.5.09-1,.19-1.5.25s-1,.05-1.51.05a22.62,22.62,0,0,1-11.07-2.85l.13-.38a25.52,25.52,0,0,0,10.68,1.14,19.69,19.69,0,0,0,9.78-4.2,30.66,30.66,0,0,0,7-8.17,52.9,52.9,0,0,0,4.57-9.83,36.32,36.32,0,0,0,2.07-10.58c.08-1.8,0-3.61-.07-5.43s-.24-3.63-.51-5.41a7.94,7.94,0,0,0-2.34-4.62,8.39,8.39,0,0,0-4.7-2.24,7.8,7.8,0,0,0-5.1,1,11.57,11.57,0,0,0-3.61,3.9Z" transform="translate(-303.22 -223.2)"/></svg>