<svg id="Layer_1" data-name="Layer 1" xmlns="http://www.w3.org/2000/svg" viewBox="0 0 64.6 65.87"><defs><style>.cls-1{fill:#7d1416;}.cls-2{fill:none;stroke:#7d1416;stroke-miterlimit:10;stroke-width:5px;}</style></defs><path class="cls-1" d="M269,229A99.64,99.64,0,0,0,285,233.21a88.83,88.83,0,0,0,32.35-.11A157.69,157.69,0,0,0,333.55,229a51.27,51.27,0,0,1-15.18,7.93,56.35,56.35,0,0,1-34.28.1,50.54,50.54,0,0,1-8-3.29A35.79,35.79,0,0,1,269,229Z" transform="translate(-268.96 -228.98)"/><path class="cls-1" d="M269,294.85a32.66,32.66,0,0,1,7.31-4.24l2-.81c.67-.25,1.34-.46,2-.69a41.51,41.51,0,0,1,4.09-1.18,66.23,66.23,0,0,1,16.89-1.78l4.24.25c1.42.07,2.81.33,4.22.51l2.09.32a18.15,18.15,0,0,1,2.08.39c1.38.31,2.75.64,4.11,1a37.59,37.59,0,0,1,4,1.22c1.33.45,2.66.92,4,1.4,2.59,1.1,5.13,2.29,7.58,3.63-2.82-.28-5.51-.84-8.23-1.26-1.37-.18-2.72-.37-4.07-.57l-2-.32c-.66-.13-1.35-.15-2-.24-1.35-.15-2.7-.31-4-.48s-2.69-.23-4-.36c-2.68-.29-5.37-.33-8.05-.47a128.83,128.83,0,0,0-16.07.63A92,92,0,0,0,269,294.85Z" transform="translate(-268.96 -228.98)"/><line class="cls-2" x1="42.7" y1="6.09" x2="42.7" y2="61.53"/><line class="cls-2" x1="21.1" y1="6.91" x2="21.1" y2="60.33"/></svg>